<?xml version="1.0" encoding="utf-8"?>
<!-- Generator: Adobe Illustrator 22.1.0, SVG Export Plug-In . SVG Version: 6.00 Build 0)  -->
<svg version="1.1" id="Capa_1" xmlns="http://www.w3.org/2000/svg" xmlns:xlink="http://www.w3.org/1999/xlink" x="0px" y="0px"
	 viewBox="0 0 951 452" style="enable-background:new 0 0 951 452;" xml:space="preserve">
<style type="text/css">
	.st0{fill:#1A1A1A;}
</style>
<g>
	<path class="st0" d="M59.6,148.2v61c0,1.9-1.6,3.5-3.5,3.5H23.3c-1.9,0-3.5-1.6-3.5-3.5V23.1c0-1.9,1.6-3.5,3.5-3.5h71.8
		c14.5,0,27.3,2.7,38.3,8c11,5.3,19.5,12.8,25.4,22.6c5.9,9.8,8.9,20.9,8.9,33.4c0,18.9-6.5,33.8-19.4,44.8
		c-13,10.9-30.9,16.4-53.8,16.4H63.1C61.2,144.7,59.6,146.2,59.6,148.2z M59.6,108.9c0,1.9,1.6,3.5,3.5,3.5h32
		c10.5,0,18.5-2.5,24.1-7.4c5.5-5,8.3-12,8.3-21.2c0-9.5-2.8-17.1-8.4-22.9s-13.3-8.8-23.1-9h-33c-1.9,0-3.5,1.6-3.5,3.5V108.9z"/>
	<path class="st0" d="M280.5,212.7h-31.3c-1.9,0-3.5-1.6-3.5-3.5V69.7c0-2.4-2.3-4-4.5-3.3l-36.7,11.4c-2.3,0.7-4.5-1-4.5-3.3V50.4
		c0-1.5,0.9-2.8,2.3-3.3l77.1-27.6c0.4-0.1,0.8-0.2,1.2-0.2l0,0c1.9,0,3.5,1.6,3.5,3.5v186.4C284,211.1,282.5,212.7,280.5,212.7z"/>
</g>
<g>
	<path class="st0" d="M348.7,149.2v61c0,1.9-1.6,3.5-3.5,3.5h-32.8c-1.9,0-3.5-1.6-3.5-3.5V24.1c0-1.9,1.6-3.5,3.5-3.5h71.8
		c14.5,0,27.3,2.7,38.3,8c11,5.3,19.5,12.8,25.4,22.6c5.9,9.8,8.9,20.9,8.9,33.4c0,18.9-6.5,33.8-19.4,44.8
		c-13,10.9-30.9,16.4-53.8,16.4h-31.4C350.3,145.7,348.7,147.2,348.7,149.2z M348.7,109.9c0,1.9,1.6,3.5,3.5,3.5h32
		c10.5,0,18.5-2.5,24.1-7.4c5.5-5,8.3-12,8.3-21.2c0-9.5-2.8-17.1-8.4-22.9c-5.6-5.8-13.3-8.8-23.1-9h-33c-1.9,0-3.5,1.6-3.5,3.5
		V109.9z"/>
	<path class="st0" d="M608.9,213.7H483.6c-1.9,0-3.5-1.6-3.5-3.5v-21.4c0-0.9,0.3-1.7,0.9-2.4l61.5-65.6c8.6-9.4,14.9-17.6,19-24.5
		c4.1-7,6.2-13.6,6.2-19.9c0-8.6-2.2-15.3-6.5-20.2c-4.3-4.9-10.5-7.4-18.6-7.4c-8.7,0-15.5,3-20.5,9c-4.4,5.3-6.9,12-7.4,20.2
		c-0.1,1.9-1.6,3.3-3.5,3.3h-31.5c-2,0-3.6-1.7-3.5-3.7c0.5-10.3,3.3-19.9,8.3-28.6c5.6-9.7,13.5-17.4,23.8-22.9
		c10.3-5.5,21.9-8.3,34.9-8.3c19.9,0,35.3,4.8,46.4,14.3s16.5,23,16.5,40.5c0,9.5-2.5,19.3-7.4,29.2c-5,9.9-13.4,21.4-25.5,34.6
		L535,176.9c-2.1,2.2-0.5,5.9,2.5,5.9h71.4c1.9,0,3.5,1.6,3.5,3.5v23.9C612.4,212.1,610.9,213.7,608.9,213.7z"/>
</g>
<g>
	<path class="st0" d="M676.9,147.2v61c0,1.9-1.6,3.5-3.5,3.5h-32.8c-1.9,0-3.5-1.6-3.5-3.5V22.1c0-1.9,1.6-3.5,3.5-3.5h71.8
		c14.5,0,27.3,2.7,38.3,8c11,5.3,19.5,12.8,25.4,22.6C782,58.9,785,70,785,82.5c0,18.9-6.5,33.8-19.4,44.8
		c-13,10.9-30.9,16.4-53.8,16.4h-31.4C678.4,143.7,676.9,145.2,676.9,147.2z M676.9,107.9c0,1.9,1.6,3.5,3.5,3.5h32
		c10.5,0,18.5-2.5,24.1-7.4c5.5-5,8.3-12,8.3-21.2c0-9.5-2.8-17.1-8.4-22.9s-13.3-8.8-23.1-9h-33c-1.9,0-3.5,1.6-3.5,3.5V107.9z"/>
	<path class="st0" d="M847.2,101.7c0-1.9,1.6-3.5,3.5-3.5h16.9c9.7,0,16.9-2.4,21.6-7.3c4.7-4.9,7-11.3,7-19.4
		c0-7.8-2.3-13.8-7-18.2c-4.6-4.3-11-6.5-19.2-6.5c-7.3,0-13.5,2-18.4,6c-4.1,3.4-6.6,7.6-7.2,12.7c-0.2,1.7-1.7,3.1-3.5,3.1h-31.4
		c-2,0-3.6-1.7-3.5-3.7c0.6-8.6,3.3-16.4,8-23.4c5.4-8,13-14.3,22.8-18.8c9.8-4.5,20.5-6.8,32.3-6.8c20.4,0,36.4,4.9,48,14.7
		c11.6,9.8,17.4,23.2,17.4,40.4c0,8.8-2.7,17-8.1,24.4c-4,5.5-9,10.1-14.9,13.8c-2.4,1.4-2.2,4.9,0.3,6.1
		c7.6,3.7,13.5,8.6,17.7,14.7c5.3,7.8,8,17,8,27.6c0,17.2-6.3,30.9-18.8,41.2c-12.5,10.3-29.1,15.5-49.7,15.5
		c-19.3,0-35-5.1-47.3-15.3c-11.3-9.4-17.4-21.6-18.3-36.7c-0.1-2,1.5-3.7,3.5-3.7l31.4,0c1.8,0,3.3,1.3,3.5,3.1
		c0.7,5.9,3.3,10.8,8,14.7c5.4,4.6,12.1,6.9,20.1,6.9c9.1,0,16.2-2.4,21.4-7.2c5.2-4.8,7.8-11.2,7.8-19.2
		c0-19.3-10.6-28.9-31.8-28.9h-16.8c-1.9,0-3.5-1.6-3.5-3.5V101.7z"/>
</g>
<path class="st0" d="M60,372.2v61c0,1.9-1.6,3.5-3.5,3.5H23.7c-1.9,0-3.5-1.6-3.5-3.5V247.1c0-1.9,1.6-3.5,3.5-3.5h71.8
	c14.5,0,27.3,2.7,38.3,8c11,5.3,19.5,12.8,25.4,22.6c5.9,9.8,8.9,20.9,8.9,33.4c0,18.9-6.5,33.8-19.4,44.8
	c-13,10.9-30.9,16.4-53.8,16.4H63.5C61.6,368.7,60,370.2,60,372.2z M60,332.9c0,1.9,1.6,3.5,3.5,3.5h32c10.5,0,18.5-2.5,24.1-7.4
	c5.5-5,8.3-12,8.3-21.2c0-9.5-2.8-17.1-8.4-22.9s-13.3-8.8-23.1-9h-33c-1.9,0-3.5,1.6-3.5,3.5V332.9z"/>
<g>
	<path class="st0" d="M388.1,371.2v61c0,1.9-1.6,3.5-3.5,3.5h-32.8c-1.9,0-3.5-1.6-3.5-3.5V246.1c0-1.9,1.6-3.5,3.5-3.5h71.8
		c14.5,0,27.3,2.7,38.3,8c11,5.3,19.5,12.8,25.4,22.6c5.9,9.8,8.9,20.9,8.9,33.4c0,18.9-6.5,33.8-19.4,44.8
		c-13,10.9-30.9,16.4-53.8,16.4h-31.4C389.7,367.7,388.1,369.2,388.1,371.2z M388.1,331.9c0,1.9,1.6,3.5,3.5,3.5h32
		c10.5,0,18.5-2.5,24.1-7.4c5.5-5,8.3-12,8.3-21.2c0-9.5-2.8-17.1-8.4-22.9c-5.6-5.8-13.3-8.8-23.1-9h-33c-1.9,0-3.5,1.6-3.5,3.5
		V331.9z"/>
	<path class="st0" d="M525.5,337.7l10.4-92c0.2-1.8,1.7-3.1,3.5-3.1H641c1.9,0,3.5,1.6,3.5,3.5v25c0,1.9-1.6,3.5-3.5,3.5h-70.2
		c-1.8,0-3.3,1.3-3.5,3.1l-3.7,32.2c-0.3,2.7,2.4,4.6,4.9,3.6c7.5-3.1,15.3-4.6,23.5-4.6c18.4,0,32.8,5.7,43.2,17.1
		c10.4,11.4,15.7,27.4,15.7,47.9c0,12.5-2.6,23.6-7.9,33.5c-5.3,9.9-12.8,17.5-22.6,22.9c-9.8,5.4-21.4,8.2-34.8,8.2
		c-11.7,0-22.5-2.4-32.5-7.1c-10-4.7-17.9-11.4-23.7-20c-5.1-7.6-8.1-16.1-9-25.5c-0.2-2,1.5-3.8,3.5-3.8h31.2
		c1.7,0,3.1,1.3,3.4,2.9c1.1,6.7,3.8,11.9,8,15.8c4.8,4.5,11.1,6.7,18.9,6.7c8.7,0,15.3-3.1,20-9.4c4.7-6.2,7-15.1,7-26.5
		c0-11-2.7-19.4-8.1-25.2c-5.4-5.8-13-8.8-22.9-8.8c-9.1,0-16.5,2.4-22.1,7.2L557,347c-0.9,0.8-2.1,1.1-3.2,0.8l-25.7-6.4
		C526.4,341,525.3,339.4,525.5,337.7z"/>
</g>
<g>
	<path class="st0" d="M302.7,363.4h19.7c0.8,0,1.4,0.6,1.4,1.4v29c0,0.8-0.6,1.4-1.4,1.4h-19.7c-0.8,0-1.4,0.6-1.4,1.4v40.2
		c0,0.8-0.6,1.4-1.4,1.4h-36.6c-0.8,0-1.4-0.6-1.4-1.4v-40.2c0-0.8-0.6-1.4-1.4-1.4h-78.7c-0.7,0-1.3-0.6-1.4-1.3l-1.6-23.1
		c0-0.3,0.1-0.6,0.2-0.8l82.1-129.7c0.3-0.4,0.7-0.6,1.2-0.6h37.6c0.8,0,1.4,0.6,1.4,1.4v121C301.3,362.8,301.9,363.4,302.7,363.4z
		 M220.6,363.4h40c0.8,0,1.4-0.6,1.4-1.4v-63.5c0-1.4-1.9-1.9-2.6-0.7l0,0l-40,63.4C218.8,362.2,219.5,363.4,220.6,363.4z"/>
</g>
</svg>
